<mxfile host="app.diagrams.net" modified="2022-04-20T07:08:04.798Z" agent="5.0 (Windows NT 10.0; Win64; x64) AppleWebKit/537.36 (KHTML, like Gecko) Chrome/100.0.4896.88 Safari/537.36" etag="pBsRFm0WrSO-FjBKjILz" version="17.4.5" type="github">
  <diagram id="plsmVzeE8os-rJMNo7gj" name="Page-1">
    <mxGraphModel dx="1422" dy="794" grid="1" gridSize="10" guides="1" tooltips="1" connect="1" arrows="1" fold="1" page="1" pageScale="1" pageWidth="850" pageHeight="1100" math="0" shadow="0">
      <root>
        <mxCell id="0" />
        <mxCell id="1" parent="0" />
        <mxCell id="Q3qXGQH1NQk1IIvQyVhR-1" value="态势感知分析平台" style="rounded=0;whiteSpace=wrap;html=1;strokeColor=#FF0000;strokeWidth=3;" vertex="1" parent="1">
          <mxGeometry x="140" y="340" width="120" height="60" as="geometry" />
        </mxCell>
        <mxCell id="Q3qXGQH1NQk1IIvQyVhR-2" value="文件沙箱" style="rounded=0;whiteSpace=wrap;html=1;strokeColor=#FF0000;strokeWidth=3;" vertex="1" parent="1">
          <mxGeometry x="140" y="520" width="120" height="60" as="geometry" />
        </mxCell>
        <mxCell id="Q3qXGQH1NQk1IIvQyVhR-3" value="全流量威胁分析系统" style="rounded=0;whiteSpace=wrap;html=1;strokeColor=#FF0000;strokeWidth=3;" vertex="1" parent="1">
          <mxGeometry x="140" y="430" width="120" height="60" as="geometry" />
        </mxCell>
        <mxCell id="Q3qXGQH1NQk1IIvQyVhR-4" value="云端威胁情报" style="rounded=0;whiteSpace=wrap;html=1;strokeColor=#FF0000;strokeWidth=3;" vertex="1" parent="1">
          <mxGeometry x="140" y="250" width="120" height="60" as="geometry" />
        </mxCell>
        <mxCell id="Q3qXGQH1NQk1IIvQyVhR-5" value="文件沙箱" style="rounded=0;whiteSpace=wrap;html=1;strokeColor=#FF0000;strokeWidth=3;" vertex="1" parent="1">
          <mxGeometry x="590" y="520" width="120" height="60" as="geometry" />
        </mxCell>
        <mxCell id="Q3qXGQH1NQk1IIvQyVhR-6" value="全流量威胁分析系统" style="rounded=0;whiteSpace=wrap;html=1;strokeColor=#FF0000;strokeWidth=3;" vertex="1" parent="1">
          <mxGeometry x="590" y="430" width="120" height="60" as="geometry" />
        </mxCell>
      </root>
    </mxGraphModel>
  </diagram>
</mxfile>
